<svg width="282" height="53" viewBox="0 0 282 53" fill="none" xmlns="http://www.w3.org/2000/svg">
<g clip-path="url(#clip0_36_261)">
<path d="M233.962 0.0710976L247.508 14.4105L261.205 0.0332031H282L255.803 28.3375V52.7107H240.125V28.3375L213.479 0.191179L233.962 0.0710976Z" fill="white"/>
<path d="M146.452 0.00146484V13.5781C159.212 13.2759 189.848 13.5274 189.848 13.5274C193.506 13.5274 194.675 16.5782 194.675 19.3977C194.733 21.7214 194.814 27.5307 194.675 32.178C194.535 36.8254 191.468 37.6815 189.209 37.6815H162.692V30.3435H146.452V51.3646H196.661C204.942 51.3646 209.595 44.2807 209.595 37.6343V14.0036C209.257 4.75505 201.619 0.186687 195.695 0.00146484H146.452Z" fill="white"/>
<path d="M68.1992 21.3092H83.764C83.5512 14.5261 87.6732 13.391 91.0412 13.391H110.535C115.931 13.3502 117.488 17.3701 117.42 19.7438V33.1091C117.42 36.5392 113.94 38.6868 110.851 38.6868H90.6368C85.612 38.6868 83.764 34.3851 83.764 29.812H68.1992V34.0355C68.1992 43.0739 75.6232 51.1753 83.764 51.1753H115.497C129.084 51.1753 133.339 39.9948 133.339 33.6383C133.306 34.524 133.339 33.6383 133.339 18.4927C133.339 6.17778 123.967 2.02198e-05 116.147 2.02198e-05L85.918 0C71.8016 0 68.1992 11.6912 68.1992 17.483V21.3092Z" fill="white"/>
<path d="M56.428 13.5963V0C46.3208 0.0333669 13.7944 0.100101 13.7944 0.100101C3.86794 0.100101 0 7.30003 0 12.4943L2.78209e-06 37.7373C0.200618 45.7041 6.53316 51.3953 14.5786 51.3953H56.428V37.6742C47.302 37.6742 21.4918 37.7373 21.4918 37.7373C15.648 37.7373 14.7311 34.0042 14.7311 31.7637V18.8168C14.7311 14.6187 18.0388 13.5963 21.3454 13.5963H56.428Z" fill="white"/>
</g>
<defs>
<clipPath id="clip0_36_261">
<rect width="282" height="53" fill="white"/>
</clipPath>
</defs>
</svg>
