<svg width="186" height="51" viewBox="0 0 186 51" fill="none" xmlns="http://www.w3.org/2000/svg">
<path fill-rule="evenodd" clip-rule="evenodd" d="M24.8261 51C38.5372 51 49.6523 39.5833 49.6523 25.5C49.6523 11.4167 38.5372 0 24.8261 0C11.115 0 0 11.4167 0 25.5C0 39.5833 11.115 51 24.8261 51ZM24.9713 37.2575C30.4237 37.2575 34.8437 32.0618 34.8437 25.6527C34.8437 19.2435 30.4237 14.0479 24.9713 14.0479C19.519 14.0479 15.0989 19.2435 15.0989 25.6527C15.0989 32.0618 19.519 37.2575 24.9713 37.2575Z" fill="white"/>
<path d="M48.3456 2.59581V48.0988C48.3456 48.9421 48.9956 49.6257 49.7975 49.6257H62.7187C63.5205 49.6257 64.1705 48.9421 64.1705 48.0988V27.9431L79.6751 48.2553C80.3365 49.1217 81.3358 49.6257 82.3922 49.6257H92.9165C93.7183 49.6257 94.3683 48.9421 94.3683 48.0988V22.2934C94.3683 21.4501 93.7183 20.7665 92.9165 20.7665H85.9478C85.146 20.7665 84.496 20.0828 84.496 19.2395V12.316C84.496 11.9232 84.7987 11.6048 85.1722 11.6048C90.2511 11.6048 94.3683 7.27446 94.3683 1.93274V1.7905C94.3683 1.39195 94.0612 1.06886 93.6822 1.06886H79.1242V22.1407L63.4449 1.63878C63.1693 1.27844 62.7533 1.06886 62.3136 1.06886H49.7975C48.9956 1.06886 48.3456 1.7525 48.3456 2.59581Z" fill="white"/>
<path d="M48.4908 17.7126V14.2006C48.4908 14.2006 48.0166 14.2566 47.6197 14.0479C47.2228 13.8392 46.4583 13.1317 46.4583 13.1317L48.4908 17.7126Z" fill="white"/>
<path d="M48.4908 33.2874V36.7994C48.4908 36.7994 48.0166 36.7434 47.6197 36.9521C47.2228 37.1608 46.4583 37.8683 46.4583 37.8683L48.4908 33.2874Z" fill="white"/>
<path d="M110.048 48.8623V1.83234C110.048 1.49501 110.308 1.22156 110.629 1.22156H124.917C125.238 1.22156 125.498 1.49501 125.498 1.83234V35.8715C125.498 36.2088 125.758 36.4823 126.078 36.4823H146.634C146.955 36.4823 147.215 36.7557 147.215 37.093V48.8623C147.215 49.1996 146.955 49.4731 146.634 49.4731H110.629C110.308 49.4731 110.048 49.1996 110.048 48.8623Z" fill="white"/>
<path d="M153.893 32.4156V49.1677C153.893 49.505 154.153 49.7785 154.474 49.7785H168.992C169.313 49.7785 169.573 49.505 169.573 49.1677V32.4108C169.573 32.3054 169.599 32.2019 169.648 32.1102L185.924 1.82751C186.143 1.42035 185.863 0.916168 185.418 0.916168H169.921C169.707 0.916168 169.51 1.04067 169.409 1.23993L162.363 15.1586C162.151 15.5792 161.582 15.5929 161.351 15.183L153.481 1.21555C153.376 1.02997 153.186 0.916168 152.981 0.916168H137.483C137.035 0.916168 136.756 1.42809 136.982 1.83527L153.814 32.1072C153.866 32.2008 153.893 32.3072 153.893 32.4156Z" fill="white"/>
</svg>
