<svg width="291" height="63" viewBox="0 0 291 63" fill="none" xmlns="http://www.w3.org/2000/svg">
<g style="mix-blend-mode:luminosity" clip-path="url(#clip0_36_238)">
<path d="M79.3057 42.893V19.936H86.6951V42.893H79.3057Z" fill="white"/>
<path d="M108.418 42.893L98.7543 31.7483V42.893H91.9668V19.936H98.4201L108.083 31.2477V19.936H114.871V42.893H108.418Z" fill="white"/>
<path d="M130.786 19.5356C134.197 19.5356 136.894 20.3921 138.878 22.1048C140.862 23.7954 141.854 26.2203 141.854 29.379H134.799C134.799 28.0442 134.442 26.9876 133.729 26.2091C133.038 25.4306 132.046 25.0412 130.753 25.0412C129.259 25.0412 128.156 25.5083 127.443 26.4428C126.752 27.377 126.406 28.6782 126.406 30.3467V32.4822C126.406 34.1284 126.752 35.4296 127.443 36.3862C128.156 37.3206 129.237 37.7877 130.686 37.7877C132.113 37.7877 133.194 37.4206 133.929 36.6866C134.665 35.9523 135.033 34.918 135.033 33.5833H141.854C141.854 36.7199 140.884 39.1224 138.945 40.7907C137.028 42.4591 134.308 43.2933 130.786 43.2933C126.863 43.2933 123.887 42.2923 121.859 40.2903C119.853 38.2881 118.85 35.3295 118.85 31.4145C118.85 27.4994 119.853 24.5406 121.859 22.5386C123.887 20.5366 126.863 19.5356 130.786 19.5356Z" fill="white"/>
<path d="M167.678 26.9767C167.678 28.378 167.299 29.646 166.541 30.7805C165.783 31.9149 164.68 32.7493 163.231 33.2831L168.346 42.893H160.054L155.975 34.5176H153.233V42.893H145.844V19.936H159.921C161.57 19.936 162.974 20.2586 164.134 20.9037C165.315 21.5265 166.195 22.383 166.775 23.4731C167.377 24.5407 167.678 25.7086 167.678 26.9767ZM160.155 27.277C160.155 26.6763 159.954 26.1759 159.553 25.7754C159.151 25.375 158.661 25.1747 158.081 25.1747H153.233V29.4125H158.081C158.661 29.4125 159.151 29.2122 159.553 28.8118C159.954 28.3892 160.155 27.8776 160.155 27.277Z" fill="white"/>
<path d="M184.709 42.893H177.319V33.9837L168.191 19.936H176.684L181.098 27.5772H181.231L185.645 19.936H193.703L184.709 33.9837V42.893Z" fill="white"/>
<path d="M209.362 19.936C210.789 19.936 212.058 20.2698 213.173 20.937C214.289 21.5822 215.157 22.4831 215.781 23.6398C216.406 24.7744 216.717 26.0535 216.717 27.4771V27.9109C216.717 29.3346 216.406 30.6248 215.781 31.7815C215.157 32.9383 214.289 33.8503 213.173 34.5176C212.058 35.1627 210.789 35.4853 209.362 35.4853H203.845V42.893H196.455V19.936H209.362ZM203.845 30.1131H206.888C207.668 30.1131 208.247 29.9129 208.626 29.5126C209.027 29.1121 209.229 28.5672 209.229 27.8776V27.6107C209.229 26.8988 209.027 26.3537 208.626 25.9755C208.247 25.5752 207.668 25.375 206.888 25.375H203.845V30.1131Z" fill="white"/>
<path d="M233.825 25.8088V42.893H226.436V25.8088H218.88V19.936H241.349V25.8088H233.825Z" fill="white"/>
<path d="M244.717 19.936H264.611V25.4416H252.106V28.6117H262.805V33.8836H252.106V37.3872H264.845V42.893H244.717V19.936Z" fill="white"/>
<path d="M278.811 19.936C286.858 19.936 290.881 23.7622 290.881 31.4145C290.881 39.0668 286.858 42.893 278.811 42.893H268.847V19.936H278.811ZM276.236 37.3872H278.677C281.776 37.3872 283.325 35.7301 283.325 32.4155V30.4135C283.325 27.0989 281.776 25.4416 278.677 25.4416H276.236V37.3872Z" fill="white"/>
<path d="M30.4048 62.8205C47.1971 62.8205 60.8098 48.7576 60.8098 31.4101C60.8098 14.0628 47.1971 0 30.4048 0C13.6127 0 0 14.0628 0 31.4101C0 48.7576 13.6127 62.8205 30.4048 62.8205Z" fill="#EB5643"/>
<path fill-rule="evenodd" clip-rule="evenodd" d="M34.3318 34.2563C35.773 38.4999 34.7244 43.3987 31.2994 46.5879C26.7418 50.8318 19.7027 50.4409 15.5767 45.7152C11.4507 40.9894 11.8006 33.7183 16.3581 29.4746C19.8845 26.1908 24.8967 25.6819 28.8954 27.8088L44.3369 13.4302L48.1928 17.8465L46.3294 19.5817L48.0163 21.5137L46.1531 23.2489L44.466 21.3168L43.135 22.5561L44.8221 24.4883L41.0953 27.9584L39.4082 26.0262L36.214 29.0007L37.9009 30.9329L34.3318 34.2563ZM28.8865 33.3216C31.4155 36.2182 31.2011 40.6744 28.4076 43.2756C25.614 45.8767 21.3 45.6374 18.7711 42.7407C16.2421 39.8441 16.4565 35.3879 19.25 32.7867C22.0435 30.1856 26.3576 30.4251 28.8865 33.3216Z" fill="white"/>
</g>
<defs>
<clipPath id="clip0_36_238">
<rect width="291" height="63" fill="white"/>
</clipPath>
</defs>
</svg>
