<svg width="242" height="53" viewBox="0 0 242 53" fill="none" xmlns="http://www.w3.org/2000/svg">
<path d="M34.4826 28.1534C34.4703 26.5505 35.031 25.0017 36.0526 23.8166C37.0743 22.6315 38.4816 21.8973 39.9934 21.7607H65.2779L57.0658 27.5399H43.3025C42.4152 27.5436 41.5653 27.9177 40.9379 28.5805C40.3104 29.2433 39.9564 30.1413 39.9528 31.0787V45.5336L34.5502 52.3972L34.4826 28.1534Z" fill="white"/>
<path d="M32.5779 20.4053C31.1684 20.4409 29.8014 19.893 28.769 18.8784L10.5215 0L20.4489 2.0548L30.3899 12.3573C31.0262 13.017 31.8822 13.3866 32.7738 13.3866C33.6654 13.3866 34.5214 13.017 35.1577 12.3573L45.1257 2.06907L55.0261 0L37.1837 18.5502C35.9245 19.7596 34.2796 20.4221 32.5779 20.4053Z" fill="white"/>
<path d="M25.3116 45.5189V31.0783C25.3116 30.1384 24.9591 29.2368 24.3313 28.5709C23.7035 27.905 22.8515 27.529 21.9619 27.5252H8.18506L0 21.7461H24.7308C26.2933 21.7703 27.7929 22.4 28.9449 23.5155C29.5045 24.0188 29.9573 24.6412 30.2738 25.3419C30.5903 26.0427 30.7634 26.8061 30.7818 27.5823V52.3968L25.3116 45.5189Z" fill="white"/>
<path d="M111.417 13.141H81.5264V39.254H111.417C112.558 39.3345 113.703 39.1699 114.782 38.7702C115.862 38.3704 116.853 37.7438 117.697 36.9281C118.437 36.0526 118.999 35.0258 119.348 33.9114C119.696 32.7969 119.824 31.6187 119.723 30.4498V22.2306C119.723 19.1341 119.062 16.9224 117.697 15.4669C116.853 14.6512 115.862 14.0246 114.782 13.6248C113.703 13.2251 112.558 13.0605 111.417 13.141ZM86.9561 34.1598V18.2352H110.134C110.716 18.1919 111.301 18.2705 111.855 18.4664C112.409 18.6623 112.921 18.9716 113.362 19.3767C113.745 19.834 114.037 20.3674 114.223 20.9456C114.408 21.5238 114.483 22.1353 114.442 22.7443V29.6507C114.483 30.2597 114.408 30.8712 114.223 31.4494C114.037 32.0276 113.745 32.5609 113.362 33.0183C112.922 33.4247 112.41 33.7349 111.856 33.9308C111.302 34.1268 110.716 34.2046 110.134 34.1598H86.9561Z" fill="white"/>
<path d="M203.613 13.1416L187.31 26.1268L203.599 39.2546H195.401L182.596 28.9378L171.17 39.2546H162.836L178.099 26.1268L162.876 13.1416H171.17L182.34 23.3585L195.252 13.1844L203.613 13.1416Z" fill="white"/>
<path d="M129.664 21.6473V23.7164H153.531V28.6821H129.664V30.7512C129.635 31.2112 129.693 31.6727 129.834 32.1088C129.976 32.545 130.198 32.9469 130.488 33.2912C131.418 33.8778 132.504 34.1283 133.581 34.0046H153.328L161.662 39.2558H131.636C130.653 39.3194 129.668 39.1728 128.739 38.8246C127.811 38.4764 126.959 37.9339 126.234 37.2295C125.58 36.4559 125.077 35.5534 124.755 34.5738C124.433 33.5942 124.297 32.5569 124.356 31.5217V20.9624C124.297 19.9272 124.433 18.8899 124.755 17.9103C125.077 16.9308 125.58 16.0282 126.234 15.2546C126.959 14.5502 127.811 14.0077 128.739 13.6595C129.668 13.3113 130.653 13.1647 131.636 13.2284H161.743L153.49 18.4367H132.946C132.511 18.4048 132.074 18.4654 131.661 18.6149C131.248 18.7644 130.868 18.9998 130.542 19.3071C130.247 19.6089 130.016 19.9737 129.864 20.3772C129.713 20.7807 129.645 21.2137 129.664 21.6473Z" fill="white"/>
<path d="M233.667 34.0046L242 39.2558H211.867C210.883 39.3194 209.898 39.1728 208.97 38.8246C208.041 38.4764 207.189 37.9339 206.464 37.2295C205.81 36.4559 205.308 35.5534 204.986 34.5738C204.663 33.5942 204.528 32.5569 204.587 31.5217V20.9624C204.528 19.9272 204.663 18.8899 204.986 17.9103C205.308 16.9308 205.81 16.0282 206.464 15.2546C207.189 14.5502 208.041 14.0077 208.97 13.6595C209.898 13.3113 210.883 13.1647 211.867 13.2284H241.973L233.667 18.3511H213.123C212.687 18.3192 212.25 18.3798 211.837 18.5293C211.424 18.6788 211.044 18.9142 210.719 19.2215C210.428 19.5331 210.204 19.9072 210.061 20.3183C209.919 20.7295 209.862 21.1681 209.895 21.6045V23.6736H233.761V28.6821H209.949V30.7512C209.916 31.2114 209.973 31.6738 210.114 32.1104C210.256 32.547 210.48 32.9487 210.773 33.2912C211.703 33.8778 212.789 34.1283 213.866 34.0046H233.667Z" fill="white"/>
</svg>
