<svg width="174" height="183" viewBox="0 0 174 183" fill="none" xmlns="http://www.w3.org/2000/svg">
<path d="M81.1998 40.6669C81.9452 40.9444 82.6579 41.2829 83.3748 41.6327C83.5774 41.7298 83.7799 41.8268 83.9886 41.9267C96.3568 47.8997 108.466 56.2505 113.422 70.218C115.915 77.5641 116.127 86.3276 113.938 93.8047C118.174 93.2229 121.442 91.7563 124.115 88.1643C124.764 87.5691 124.764 87.5691 125.696 87.4145C126.569 87.5691 126.569 87.5691 126.986 88.0305C127.382 88.7242 127.555 89.3133 127.729 90.1013C127.792 90.3863 127.856 90.6714 127.921 90.9652C128.017 91.4229 128.017 91.4229 128.115 91.8899C128.183 92.2074 128.25 92.5248 128.319 92.8518C129.725 99.6506 130.354 106.675 129.235 113.59C129.173 113.974 129.116 114.358 129.062 114.743C127.706 124.454 122.537 133.766 115.054 139.692C111.233 142.605 111.233 142.605 110.329 142.605C110.25 142.408 110.171 142.21 110.09 142.007C109.348 140.294 108.537 138.924 107.332 137.538C107.212 137.398 107.091 137.258 106.967 137.114C106.331 136.41 105.856 135.927 104.915 135.827C104.621 136.18 104.621 136.18 104.32 136.541C102.233 139.006 100.184 141.4 96.8598 141.639C95.177 141.588 93.7732 140.838 92.53 139.668C90.0449 136.837 89.6125 133.708 89.6743 129.964C89.6766 129.692 89.6789 129.42 89.6813 129.139C89.6873 128.476 89.6957 127.814 89.7065 127.151C87.9582 127.265 86.7334 127.627 85.2115 128.524C85.0215 128.633 84.8314 128.743 84.6356 128.855C81.6329 130.626 79.1926 132.864 77.5909 136.098C74.8943 134.894 73.5278 131.719 72.4354 129.049C72.332 128.8 72.2287 128.55 72.1222 128.293C70.226 123.07 70.5275 117.191 70.6309 111.698C70.004 111.664 70.004 111.664 69.342 111.698C67.3444 113.653 66.0305 117.064 64.702 119.56C64.5892 119.77 64.4763 119.981 64.3601 120.197C61.104 126.304 58.6575 132.894 57.9998 139.894C56.0156 138.664 54.3931 137.098 52.7421 135.43C52.359 135.044 51.9715 134.663 51.5836 134.283C47.6274 130.3 44.5844 125.265 42.7909 119.831C42.7311 119.65 42.6713 119.47 42.6097 119.283C41.3112 115.289 40.8799 111.545 40.8898 107.343C40.89 107.121 40.8901 106.898 40.8902 106.668C40.8999 103.346 41.0691 100.248 42.0176 97.058C42.0715 96.8614 42.1253 96.6648 42.1808 96.4622C44.4633 88.1422 44.4633 88.1422 46.6576 86.2136C47.3987 86.0611 47.3987 86.0611 48.2043 86.2136C49.4137 87.3304 49.8421 88.6817 50.4246 90.2315C51.1616 92.0089 52.0577 93.7942 53.6176 94.8891C53.5339 94.4928 53.5339 94.4928 53.4484 94.0885C52.3795 88.563 52.4781 82.7706 53.6176 77.2669C53.6549 77.08 53.6921 76.893 53.7305 76.7004C55.3937 68.516 59.284 61.478 65.6526 56.3574C65.8118 56.2257 65.9711 56.0939 66.1351 55.9581C67.2172 55.1191 67.9555 54.838 69.342 55.0358C69.8576 55.578 69.8576 55.578 69.9079 56.5379C69.9044 56.9519 69.8981 57.3658 69.8898 57.7797C69.8879 58.0006 69.8859 58.2214 69.8839 58.4489C69.8755 59.3938 69.8612 60.3386 69.847 61.2834C69.7306 67.6391 69.7306 67.6391 72.533 73.0901C73.7498 74.2001 75.0673 74.4335 76.6233 74.381C78.9552 74.0645 81.0368 73.1464 82.6659 71.3533C84.8515 68.1849 84.6553 63.6953 84.1987 59.956C83.3378 54.6702 81.4709 49.5373 79.3423 44.6858C78.8272 43.4849 78.4618 42.5572 78.622 41.2091C79.2326 40.0381 80.0988 40.433 81.1998 40.6669Z" fill="#FEFEFE"/>
</svg>
