<svg width="282" height="57" viewBox="0 0 282 57" fill="none" xmlns="http://www.w3.org/2000/svg">
<g style="mix-blend-mode:luminosity" clip-path="url(#clip0_36_268)">
<path d="M235.204 20.244L227.089 19.3825V8.61426H220.056V12.6344C220.056 20.9619 223.166 23.8334 226.954 25.1256H220.056V35.0324C220.056 44.652 224.519 48.5286 233.175 48.5286C241.831 48.5286 246.294 44.652 246.294 35.0324V33.7402C246.43 22.2541 240.614 20.8183 235.204 20.244ZM239.397 41.7806H227.089V25.2692C228.441 25.6999 229.929 25.9871 231.281 26.1306L239.397 27.4228V41.7806ZM256.033 8.61426C253.869 8.61426 252.381 10.1936 252.381 12.4908C252.381 14.7881 253.869 16.3674 256.033 16.3674C258.197 16.3674 259.684 14.7881 259.684 12.4908C259.82 10.1936 258.332 8.61426 256.033 8.61426ZM272.938 20.1004V13.3523H266.041C266.041 22.972 270.504 26.8485 279.161 26.8485H282V20.1004H272.938ZM272.938 25.9871H266.041V35.0324C266.041 44.652 270.504 48.5286 279.161 48.5286H282V41.7806H272.938V25.9871ZM252.651 48.5286H259.684V20.1004H252.651V48.5286Z" fill="white"/>
<path d="M135.656 20.2445L127.541 19.383V8.61475H120.508V12.6349C120.508 20.9623 123.619 23.8339 127.406 25.1261H120.508V48.529H127.541V25.2696C128.894 25.7004 130.382 25.9875 131.734 26.1311L139.849 27.4233V48.529H146.882V33.7406C146.882 22.2545 141.066 20.8188 135.656 20.2445ZM106.442 41.781H98.0565V20.1009H91.0233V35.0328C91.0233 44.6524 95.4865 48.529 104.143 48.529H113.34V20.1009H106.442V41.781ZM82.9082 20.1009H75.875V35.0328C75.875 44.6524 80.3385 48.529 88.9945 48.529H91.8348V41.781H82.7729V20.1009H82.9082ZM201.389 20.1009H188.269V23.6903C188.269 33.31 192.733 37.1865 201.389 37.1865H214.508V33.597C214.508 23.8339 210.045 20.1009 201.389 20.1009ZM207.61 31.0126H195.167V26.4183H207.475V31.0126H207.61ZM157.161 8.61475C154.997 8.61475 153.51 10.1941 153.51 12.4913C153.51 14.7885 154.997 16.3679 157.161 16.3679C159.325 16.3679 160.813 14.7885 160.813 12.4913C160.813 10.1941 159.325 8.61475 157.161 8.61475ZM153.645 48.529H160.678V20.1009H153.645V48.529ZM174.068 25.9875H167.035V35.0328C167.035 44.6524 171.498 48.529 180.154 48.529H182.994V41.781H174.068V25.9875ZM174.068 13.3528H167.035C167.035 22.9724 171.498 26.849 180.154 26.849H182.994V20.1009H174.068V13.3528ZM195.167 36.1813H188.134C188.134 44.796 192.597 48.529 201.254 48.529H213.02V41.781H195.032V36.1813H195.167Z" fill="white"/>
<path d="M1.64137 18.6045C0.683912 20.465 0 22.6117 0 24.7584H14.3618L20.2434 18.6045H1.64137Z" fill="white"/>
<path d="M26.261 12.4512H11.7624C7.38543 12.4512 3.5556 15.0272 1.50391 18.6051H20.2427L26.261 12.4512Z" fill="white"/>
<path d="M67.2961 0H52.7975C46.2321 0 40.8977 5.58141 40.8977 12.4509H26.399L38.2989 0H23.8002C17.2348 0 11.9004 5.58141 11.9004 12.4509V34.0609V34.204C11.9004 46.6548 21.6117 56.6728 33.3748 56.6728H55.2596V12.3078L67.2961 0ZM39.9402 32.3435C38.0253 30.34 38.0253 26.9053 39.9402 24.9017L47.0526 32.3435C45.1377 34.4904 41.9918 34.4904 39.9402 32.3435Z" fill="white"/>
</g>
<defs>
<clipPath id="clip0_36_268">
<rect width="282" height="57" fill="white"/>
</clipPath>
</defs>
</svg>
