<svg width="844" height="75" viewBox="0 0 844 75" fill="none" xmlns="http://www.w3.org/2000/svg">
<path fill-rule="evenodd" clip-rule="evenodd" d="M844 36.5C844 16.3416 827.658 0 807.5 0H126.5C114.397 0 103.669 5.89104 97.0288 14.9622C93.3907 19.9318 88.1085 23.9756 81.9495 23.9756V23.9756C75.8523 23.9756 70.6055 20.0136 66.9869 15.1062C60.2308 5.9437 49.3616 0 37.1041 0C16.6122 0 0.00012207 16.612 0.00012207 37.104C0.00012207 57.5959 16.6122 74.2079 37.1041 74.2079C47.9518 74.2079 57.7122 69.5528 64.4967 62.1313C69.2561 56.925 75.3895 52.5172 82.4434 52.5172V52.5172C89.3278 52.5172 95.3479 56.7303 100.103 61.7084C106.749 68.6659 116.119 73 126.5 73H807.5C827.658 73 844 56.6584 844 36.5Z" fill="#7800FF"/>
<circle cx="31.5" cy="31.5" r="31.5" transform="matrix(-1 0 0 1 68 6)" fill="#141414"/>
<path d="M42.8102 42.8027V31.3861M42.8102 42.8027H31.3936M42.8102 42.8027L31.3936 31.3861" stroke="white" stroke-width="2"/>
</svg>
