<svg width="841" height="703" viewBox="0 0 841 703" fill="none" xmlns="http://www.w3.org/2000/svg">
<mask id="path-1-inside-1_74_133" fill="white">
<path fill-rule="evenodd" clip-rule="evenodd" d="M79.4613 61.0763C68.2403 51.6033 67.9773 32.2922 61.3973 19.164C59.6012 15.5806 56.9261 12.1704 53.3895 9.18469C40.1847 -1.96299 19.9707 -2.97187 8.24018 6.93131C-3.49037 16.8345 -2.29533 33.8996 10.9094 45.0473C17.1726 50.3348 25.0128 53.3414 32.7767 53.9844C42.8763 54.8208 53.8282 55.7188 61.5718 62.2561L71.4172 70.5678C77.494 75.6979 81 83.2462 81 91.1989V676C81 690.912 93.0883 703 108 703H814C828.912 703 841 690.912 841 676V101C841 86.0883 828.912 74 814 74H104.643C98.2671 74 92.0972 71.7439 87.2255 67.6311L79.4613 61.0763Z"/>
</mask>
<path fill-rule="evenodd" clip-rule="evenodd" d="M79.4613 61.0763C68.2403 51.6033 67.9773 32.2922 61.3973 19.164C59.6012 15.5806 56.9261 12.1704 53.3895 9.18469C40.1847 -1.96299 19.9707 -2.97187 8.24018 6.93131C-3.49037 16.8345 -2.29533 33.8996 10.9094 45.0473C17.1726 50.3348 25.0128 53.3414 32.7767 53.9844C42.8763 54.8208 53.8282 55.7188 61.5718 62.2561L71.4172 70.5678C77.494 75.6979 81 83.2462 81 91.1989V676C81 690.912 93.0883 703 108 703H814C828.912 703 841 690.912 841 676V101C841 86.0883 828.912 74 814 74H104.643C98.2671 74 92.0972 71.7439 87.2255 67.6311L79.4613 61.0763Z" fill="white"/>
<path d="M53.3895 9.18469L52.0993 10.7129L53.3895 9.18469ZM8.24018 6.93131L9.53034 8.45954L8.24018 6.93131ZM10.9094 45.0473L12.1995 43.519L10.9094 45.0473ZM79.4613 61.0763L80.7514 59.5481L79.4613 61.0763ZM63.1853 18.2678C61.2603 14.4271 58.41 10.8057 54.6796 7.65646L52.0993 10.7129C55.4422 13.5351 57.9422 16.7341 59.6093 20.0601L63.1853 18.2678ZM54.6796 7.65646C40.8667 -4.00471 19.5547 -5.23803 6.95002 5.40308L9.53034 8.45954C20.3868 -0.705704 39.5028 0.0787304 52.0993 10.7129L54.6796 7.65646ZM6.95002 5.40308C0.592749 10.77 -2.29826 18.1338 -1.77106 25.6623C-1.24568 33.1647 2.65712 40.6979 9.61921 46.5755L12.1995 43.519C5.95692 38.2489 2.65985 31.6757 2.21917 25.3829C1.78032 19.1161 4.15707 12.9958 9.53034 8.45954L6.95002 5.40308ZM9.61921 46.5755C16.2203 52.1483 24.4608 55.3025 32.6117 55.9776L32.9418 51.9912C25.5649 51.3802 18.1249 48.5214 12.1995 43.519L9.61921 46.5755ZM72.7074 69.0396L62.862 60.7279L60.2817 63.7844L70.127 72.096L72.7074 69.0396ZM79 91.1989V676H83V91.1989H79ZM108 705H814V701H108V705ZM843 676V101H839V676H843ZM814 72H104.643V76H814V72ZM78.1711 62.6046L85.9354 69.1593L88.5157 66.1029L80.7514 59.5481L78.1711 62.6046ZM104.643 72C98.7394 72 93.0265 69.911 88.5157 66.1029L85.9354 69.1593C91.1679 73.5767 97.7949 76 104.643 76V72ZM843 101C843 84.9838 830.016 72 814 72V76C827.807 76 839 87.1929 839 101H843ZM814 705C830.016 705 843 692.016 843 676H839C839 689.807 827.807 701 814 701V705ZM79 676C79 692.016 91.9837 705 108 705V701C94.1929 701 83 689.807 83 676H79ZM32.6117 55.9776C42.8745 56.8275 53.1162 57.7351 60.2817 63.7844L62.862 60.7279C54.5402 53.7024 42.8782 52.8141 32.9418 51.9912L32.6117 55.9776ZM70.127 72.096C75.7537 76.8461 79 83.8353 79 91.1989H83C83 82.6571 79.2343 74.5497 72.7074 69.0396L70.127 72.096ZM59.6093 20.0601C62.7953 26.4168 64.4104 34.1721 66.7729 42.0644C69.0724 49.7462 72.0747 57.4578 78.1711 62.6046L80.7514 59.5481C75.6269 55.2219 72.8872 48.5414 70.6049 40.9173C68.3857 33.5038 66.5793 25.0394 63.1853 18.2678L59.6093 20.0601Z" fill="white" mask="url(#path-1-inside-1_74_133)"/>
</svg>
