<svg width="124" height="121" viewBox="0 0 124 121" fill="none" xmlns="http://www.w3.org/2000/svg">
<path fill-rule="evenodd" clip-rule="evenodd" d="M123.525 60.5094C123.525 93.5804 95.9037 120.39 61.8306 120.39C27.7575 120.39 0.135742 93.5804 0.135742 60.5094C0.135742 27.4384 27.7575 0.629089 61.8306 0.629089C95.9037 0.629089 123.525 27.4384 123.525 60.5094ZM41.4495 55.0241C35.2693 57.6432 28.9192 60.3342 23.1126 63.4384L23.1122 63.4389C20.0802 65.5935 24.1103 67.1174 27.8908 68.547C28.4919 68.7743 29.0866 68.9992 29.6457 69.2239C30.1109 69.3626 30.584 69.5089 31.0634 69.6571C35.268 70.9573 39.9565 72.4071 44.0386 70.2262C50.7442 66.4875 57.0724 62.1651 63.3958 57.8459C65.4674 56.4308 67.5386 55.0161 69.6224 53.6224C69.72 53.5618 69.8302 53.4924 69.9506 53.4167C71.7258 52.2998 75.718 49.7881 74.2414 53.2491C70.7493 56.9556 67.0089 60.2368 63.2482 63.5358C60.7137 65.7591 58.1699 67.9906 55.6866 70.3659C53.5238 72.0714 51.278 75.5014 53.6998 77.8898C59.2778 81.6799 64.9429 85.3781 70.6047 89.0741C72.4472 90.2768 74.2893 91.4794 76.128 92.6847C79.2441 95.0995 84.114 93.1463 84.7992 89.3729C85.1039 87.6371 85.4097 85.9013 85.7156 84.1654C87.406 74.573 89.097 64.9771 90.5908 55.3534C90.7938 53.8439 91.0239 52.3343 91.2542 50.824C91.8123 47.1635 92.3711 43.4986 92.5455 39.8185C92.0957 36.1459 87.5078 36.9534 84.9545 37.7792C71.831 42.626 58.8385 47.8321 45.8975 53.13C44.4315 53.7604 42.9455 54.3902 41.4495 55.0241Z" fill="#7800FF"/>
</svg>
