<svg width="125" height="121" viewBox="0 0 125 121" fill="none" xmlns="http://www.w3.org/2000/svg">
<path fill-rule="evenodd" clip-rule="evenodd" d="M0.93457 60.5094C0.93457 93.5804 28.5563 120.39 62.6294 120.39C96.7026 120.39 124.324 93.5804 124.324 60.5094C124.324 27.4384 96.7026 0.62912 62.6294 0.62912C28.5563 0.62912 0.93457 27.4384 0.93457 60.5094ZM101.348 58.2178C101.34 77.8455 84.8897 93.8161 64.663 93.8241H64.6478C58.508 93.8221 52.475 92.3269 47.1166 89.4901L27.669 94.4416L32.8735 75.9906C29.6631 70.5906 27.9738 64.4652 27.9766 58.1897C27.9846 38.5575 44.4418 22.5852 64.6626 22.5852C74.4765 22.5893 83.6875 26.2975 90.6137 33.0279C97.54 39.758 101.352 48.7039 101.348 58.2178Z" fill="#7800FF"/>
<path fill-rule="evenodd" clip-rule="evenodd" d="M36.4775 85.9824L48.018 83.0441L49.1315 83.6855C53.813 86.3819 59.1795 87.8087 64.651 87.8107H64.6633C81.4694 87.8107 95.1479 74.5342 95.1546 58.2157C95.1578 50.3078 91.9892 42.8724 86.2323 37.2783C80.4755 31.6843 72.8197 28.602 64.6753 28.5993C47.8562 28.5993 34.1776 41.8744 34.1709 58.1917C34.1685 63.7838 35.7806 69.2298 38.8329 73.9417L39.5579 75.0614L36.4775 85.9824ZM81.8899 65.8838C82.5292 66.1837 82.961 66.3862 83.1453 66.6849C83.3744 67.0559 83.3744 68.8372 82.6109 70.9158C81.8467 72.9939 78.1847 74.8907 76.4234 75.146C74.8443 75.3752 72.8458 75.4708 70.65 74.7934C69.3186 74.3835 67.6113 73.8361 65.4243 72.9193C56.8309 69.3179 51.0235 61.2339 49.9259 59.7061C49.849 59.5991 49.7952 59.5242 49.7652 59.4853L49.7578 59.4758C49.2727 58.8475 46.0223 54.6382 46.0223 50.2818C46.0223 46.1837 48.0964 44.0356 49.0511 43.0469C49.1165 42.9791 49.1767 42.9168 49.2305 42.8597C50.0707 41.969 51.0639 41.7463 51.6749 41.7463C52.2859 41.7463 52.8977 41.7518 53.4318 41.7778C53.4977 41.781 53.5662 41.7807 53.6371 41.7803C54.1713 41.7772 54.8372 41.7734 55.4942 43.3051C55.7469 43.8945 56.1168 44.7684 56.5068 45.6901C57.2956 47.5539 58.1671 49.6131 58.3204 49.9111C58.5496 50.3565 58.7023 50.8758 58.3968 51.4699C58.3509 51.559 58.3085 51.643 58.268 51.7233C58.0385 52.1781 57.8697 52.5126 57.4802 52.954C57.327 53.1275 57.1687 53.3146 57.0104 53.5017C56.6951 53.8745 56.3798 54.2472 56.1052 54.5127C55.6463 54.9564 55.1686 55.4377 55.7033 56.3284C56.238 57.2191 58.0777 60.1325 60.8027 62.4917C63.732 65.0277 66.2779 66.0995 67.5684 66.6428C67.8204 66.7489 68.0245 66.8348 68.1743 66.9076C69.0906 67.3531 69.6253 67.2785 70.1601 66.6849C70.6948 66.0912 72.4515 64.0869 73.0625 63.1964C73.6735 62.306 74.2848 62.4543 75.1249 62.7511C75.9653 63.0483 80.4719 65.2004 81.3886 65.6457C81.5675 65.7326 81.7348 65.8111 81.8899 65.8838Z" fill="#7800FF"/>
</svg>
